<svg width="475" height="475" viewBox="0 0 475 475" fill="none" xmlns="http://www.w3.org/2000/svg">
<rect width="475" height="475" fill="white"/>
<path d="M241.819 321H111.819L87.0188 381H20.6187L145.419 101H209.419L334.619 381H266.619L241.819 321ZM221.419 271.8L177.019 164.6L132.619 271.8H221.419ZM359.269 165.8H421.669V381H359.269V165.8ZM390.469 135.8C379.002 135.8 369.669 132.467 362.469 125.8C355.269 119.133 351.669 110.867 351.669 101C351.669 91.1333 355.269 82.8667 362.469 76.2C369.669 69.5333 379.002 66.2 390.469 66.2C401.935 66.2 411.269 69.4 418.469 75.8C425.669 82.2 429.269 90.2 429.269 99.8C429.269 110.2 425.669 118.867 418.469 125.8C411.269 132.467 401.935 135.8 390.469 135.8Z" fill="black"/>
<ellipse cx="390.5" cy="101" rx="39.5" ry="36" fill="#DE1A1A"/>
</svg>
