<svg width="1650" height="375" viewBox="0 0 1650 375" fill="none" xmlns="http://www.w3.org/2000/svg">
<path d="M241.623 283H111.623L86.8234 343H20.4234L145.223 63H209.223L334.423 343H266.423L241.623 283ZM221.223 233.8L176.823 126.6L132.423 233.8H221.223ZM359.073 127.8H421.473V343H359.073V127.8ZM390.273 97.8C378.807 97.8 369.473 94.4667 362.273 87.8C355.073 81.1333 351.473 72.8666 351.473 63C351.473 53.1333 355.073 44.8667 362.273 38.2C369.473 31.5333 378.807 28.2 390.273 28.2C401.74 28.2 411.073 31.4 418.273 37.8C425.473 44.2 429.073 52.2 429.073 61.8C429.073 72.2 425.473 80.8667 418.273 87.8C411.073 94.4667 401.74 97.8 390.273 97.8ZM689.067 347.8C666.934 347.8 645.467 344.867 624.667 339C604.134 332.867 587.601 325 575.067 315.4L597.067 266.6C609.067 275.4 623.334 282.467 639.867 287.8C656.401 293.133 672.934 295.8 689.467 295.8C707.867 295.8 721.467 293.133 730.267 287.8C739.067 282.2 743.467 274.867 743.467 265.8C743.467 259.133 740.801 253.667 735.467 249.4C730.401 244.867 723.734 241.267 715.467 238.6C707.467 235.933 696.534 233 682.667 229.8C661.334 224.733 643.867 219.667 630.267 214.6C616.667 209.533 604.934 201.4 595.067 190.2C585.467 179 580.667 164.067 580.667 145.4C580.667 129.133 585.067 114.467 593.867 101.4C602.667 88.0667 615.867 77.5333 633.467 69.8C651.334 62.0667 673.067 58.2 698.667 58.2C716.534 58.2 734.001 60.3333 751.067 64.6C768.134 68.8667 783.067 75 795.867 83L775.867 132.2C750.001 117.533 724.134 110.2 698.267 110.2C680.134 110.2 666.667 113.133 657.867 119C649.334 124.867 645.067 132.6 645.067 142.2C645.067 151.8 650.001 159 659.867 163.8C670.001 168.333 685.334 172.867 705.867 177.4C727.201 182.467 744.667 187.533 758.267 192.6C771.867 197.667 783.467 205.667 793.067 216.6C802.934 227.533 807.867 242.333 807.867 261C807.867 277 803.334 291.667 794.267 305C785.467 318.067 772.134 328.467 754.267 336.2C736.401 343.933 714.667 347.8 689.067 347.8ZM986.545 332.6C980.412 337.133 972.812 340.6 963.745 343C954.945 345.133 945.612 346.2 935.745 346.2C910.145 346.2 890.279 339.667 876.145 326.6C862.279 313.533 855.345 294.333 855.345 269V180.6H822.145V132.6H855.345V80.2H917.745V132.6H971.345V180.6H917.745V268.2C917.745 277.267 920.012 284.333 924.545 289.4C929.345 294.2 936.012 296.6 944.545 296.6C954.412 296.6 962.812 293.933 969.745 288.6L986.545 332.6ZM1108.37 124.6C1141.71 124.6 1167.31 132.6 1185.17 148.6C1203.04 164.333 1211.97 188.2 1211.97 220.2V343H1153.57V316.2C1141.84 336.2 1119.97 346.2 1087.97 346.2C1071.44 346.2 1057.04 343.4 1044.77 337.8C1032.77 332.2 1023.57 324.467 1017.17 314.6C1010.77 304.733 1007.57 293.533 1007.57 281C1007.57 261 1015.04 245.267 1029.97 233.8C1045.17 222.333 1068.51 216.6 1099.97 216.6H1149.57C1149.57 203 1145.44 192.6 1137.17 185.4C1128.91 177.933 1116.51 174.2 1099.97 174.2C1088.51 174.2 1077.17 176.067 1065.97 179.8C1055.04 183.267 1045.71 188.067 1037.97 194.2L1015.57 150.6C1027.31 142.333 1041.31 135.933 1057.57 131.4C1074.11 126.867 1091.04 124.6 1108.37 124.6ZM1103.57 304.2C1114.24 304.2 1123.71 301.8 1131.97 297C1140.24 291.933 1146.11 284.6 1149.57 275V253H1106.77C1081.17 253 1068.37 261.4 1068.37 278.2C1068.37 286.2 1071.44 292.6 1077.57 297.4C1083.97 301.933 1092.64 304.2 1103.57 304.2ZM1407.25 332.6C1401.12 337.133 1393.52 340.6 1384.45 343C1375.65 345.133 1366.32 346.2 1356.45 346.2C1330.85 346.2 1310.98 339.667 1296.85 326.6C1282.98 313.533 1276.05 294.333 1276.05 269V180.6H1242.85V132.6H1276.05V80.2H1338.45V132.6H1392.05V180.6H1338.45V268.2C1338.45 277.267 1340.72 284.333 1345.25 289.4C1350.05 294.2 1356.72 296.6 1365.25 296.6C1375.12 296.6 1383.52 293.933 1390.45 288.6L1407.25 332.6ZM1514.68 346.2C1496.81 346.2 1479.34 344.067 1462.28 339.8C1445.21 335.267 1431.61 329.667 1421.48 323L1442.28 278.2C1451.88 284.333 1463.48 289.4 1477.08 293.4C1490.68 297.133 1504.01 299 1517.08 299C1543.48 299 1556.68 292.467 1556.68 279.4C1556.68 273.267 1553.08 268.867 1545.88 266.2C1538.68 263.533 1527.61 261.267 1512.68 259.4C1495.08 256.733 1480.54 253.667 1469.08 250.2C1457.61 246.733 1447.61 240.6 1439.08 231.8C1430.81 223 1426.68 210.467 1426.68 194.2C1426.68 180.6 1430.54 168.6 1438.28 158.2C1446.28 147.533 1457.74 139.267 1472.68 133.4C1487.88 127.533 1505.74 124.6 1526.28 124.6C1541.48 124.6 1556.54 126.333 1571.48 129.8C1586.68 133 1599.21 137.533 1609.08 143.4L1588.28 187.8C1569.34 177.133 1548.68 171.8 1526.28 171.8C1512.94 171.8 1502.94 173.667 1496.28 177.4C1489.61 181.133 1486.28 185.933 1486.28 191.8C1486.28 198.467 1489.88 203.133 1497.08 205.8C1504.28 208.467 1515.74 211 1531.48 213.4C1549.08 216.333 1563.48 219.533 1574.68 223C1585.88 226.2 1595.61 232.2 1603.88 241C1612.14 249.8 1616.28 262.067 1616.28 277.8C1616.28 291.133 1612.28 303 1604.28 313.4C1596.28 323.8 1584.54 331.933 1569.08 337.8C1553.88 343.4 1535.74 346.2 1514.68 346.2Z" fill="white"/>
<ellipse cx="390.5" cy="62" rx="39.5" ry="36" fill="#DE1A1A"/>
</svg>
