<svg width="103" height="24" viewBox="0 0 103 24" fill="none" xmlns="http://www.w3.org/2000/svg">
<path fill-rule="evenodd" clip-rule="evenodd" d="M15.064 21.6432L14.324 19.3082H7.487L6.746 21.6432H2L8.862 2.4142H12.952L19.896 21.6442L15.064 21.6432ZM10.92 7.9082L8.56 15.8192H13.226L10.92 7.9082ZM20.424 2.4142H24.925V21.6442H20.424V2.4142ZM26.138 17.7142C26.3403 16.7653 26.6974 15.8561 27.195 15.0232C27.6277 14.3192 28.1699 13.6886 28.801 13.1552C29.4457 12.6199 30.1292 12.1332 30.846 11.6992C31.413 11.3692 31.939 11.0532 32.424 10.7512C32.871 10.4762 33.298 10.1692 33.7 9.8312C34.048 9.5422 34.34 9.1932 34.565 8.8012C34.779 8.4102 34.888 7.9692 34.88 7.5232C34.88 6.7542 34.67 6.2002 34.25 5.8612C33.803 5.5142 33.25 5.3352 32.685 5.3532C32.0423 5.33442 31.4176 5.56646 30.943 6.0002C30.476 6.4302 30.243 7.1502 30.243 8.1562H25.823C25.8154 7.31957 25.9696 6.48934 26.277 5.7112C26.571 4.9712 27.026 4.3052 27.607 3.7612C28.2269 3.19117 28.9554 2.75208 29.749 2.4702C30.6829 2.14271 31.6675 1.98358 32.657 2.0002C33.5063 1.9964 34.352 2.1122 35.169 2.3442C35.929 2.5542 36.641 2.9092 37.269 3.3882C37.885 3.8708 38.3784 4.49197 38.709 5.2012C39.083 6.0242 39.266 6.9212 39.245 7.8242C39.2547 8.58869 39.0754 9.34373 38.723 10.0222C38.3858 10.6674 37.9559 11.2597 37.447 11.7802C36.95 12.2882 36.403 12.7432 35.814 13.1402C35.228 13.5342 34.697 13.8682 34.222 14.1432C33.562 14.5832 33.018 14.9632 32.589 15.2832C32.2202 15.5497 31.8755 15.8482 31.559 16.1752C31.3225 16.4183 31.1402 16.7086 31.024 17.0272C30.9183 17.3556 30.8676 17.6993 30.874 18.0442H39.108V21.6422H25.768C25.745 20.3222 25.869 19.0052 26.138 17.7142ZM39.958 5.7922C40.727 5.8082 41.496 5.7392 42.25 5.5862C42.7537 5.49042 43.2282 5.27885 43.636 4.9682C43.9634 4.69618 44.2023 4.33269 44.322 3.9242C44.459 3.4332 44.524 2.9242 44.514 2.4142H48.44V21.6442H43.912V8.9232H39.958V5.7922Z" fill="white"/>
<path fill-rule="evenodd" clip-rule="evenodd" d="M53.534 2.41409H57.733V21.6441H53.533V2.41309L53.534 2.41409ZM73.238 8.39209V21.6331H69.038V19.7651C68.8657 20.0866 68.6432 20.3786 68.379 20.6301C68.0968 20.9013 67.7785 21.1322 67.433 21.3161C67.062 21.5141 66.671 21.6701 66.266 21.7821C65.856 21.9001 65.431 21.9601 65.004 21.9611C64.1018 21.9713 63.2078 21.7886 62.382 21.4251C61.6086 21.084 60.9131 20.5885 60.338 19.9691C59.7563 19.3322 59.3081 18.5851 59.02 17.7721C58.3978 15.984 58.3978 14.0382 59.02 12.2501C59.308 11.4367 59.7562 10.6893 60.338 10.0521C60.9132 9.433 61.6087 8.93789 62.382 8.59709C63.2079 8.23391 64.1018 8.0515 65.004 8.06209C65.431 8.06309 65.856 8.12309 66.267 8.24109C66.673 8.35409 67.065 8.51509 67.433 8.72109C67.78 8.91509 68.099 9.15509 68.38 9.43609C68.637 9.68809 68.86 9.97509 69.039 10.2871V8.39209H73.238ZM65.882 18.3921C66.327 18.3981 66.768 18.3041 67.172 18.1171C67.5501 17.9404 67.8893 17.6903 68.1698 17.3812C68.4503 17.0722 68.6666 16.7105 68.806 16.3171C68.962 15.9001 69.041 15.4581 69.039 15.0131C69.0454 14.1443 68.7326 13.3035 68.16 12.6501C67.8843 12.338 67.5478 12.0855 67.171 11.9081C66.765 11.7271 66.3255 11.6335 65.881 11.6335C65.4365 11.6335 64.997 11.7271 64.591 11.9081C64.2143 12.0855 63.8777 12.338 63.602 12.6501C63.03 13.3038 62.7176 14.1445 62.724 15.0131C62.722 15.4581 62.801 15.9011 62.957 16.3181C63.0967 16.7113 63.313 17.0729 63.5935 17.3819C63.874 17.6909 64.2131 17.9411 64.591 18.1181C64.995 18.3051 65.436 18.3981 65.881 18.3911L65.882 18.3921ZM78.341 21.6431H74.141V2.41409H78.341V10.2971C78.7287 9.63798 79.2883 9.09668 79.96 8.73109C80.33 8.52909 80.72 8.36709 81.126 8.25109C81.541 8.13109 81.971 8.07109 82.402 8.07209C83.3042 8.06184 84.1982 8.24459 85.024 8.60809C85.797 8.94809 86.494 9.44409 87.068 10.0641C87.6494 10.7012 88.0975 11.4482 88.386 12.2611C89.0073 14.0493 89.0073 15.9948 88.386 17.7831C88.0976 18.5963 87.6495 19.3436 87.068 19.9811C86.493 20.6006 85.7974 21.0961 85.024 21.4371C84.1981 21.8002 83.3041 21.9826 82.402 21.9721C81.9704 21.9732 81.5408 21.9133 81.126 21.7941C80.7226 21.6785 80.3319 21.5224 79.96 21.3281C79.6087 21.1464 79.2854 20.915 79 20.6411C78.7354 20.3896 78.5126 20.0977 78.34 19.7761V21.6431H78.341ZM81.525 18.4021C81.961 18.4061 82.393 18.3121 82.788 18.1271C83.1661 17.9504 83.5052 17.7002 83.7858 17.3912C84.0663 17.0822 84.2825 16.7205 84.422 16.3271C84.578 15.9111 84.657 15.4681 84.654 15.0231C84.6605 14.1545 84.3481 13.3137 83.776 12.6601C83.4999 12.3482 83.163 12.096 82.786 11.9191C82.3917 11.7335 81.9607 11.6392 81.525 11.6431C81.0902 11.636 80.6591 11.7232 80.2612 11.8986C79.8633 12.0739 79.5081 12.3334 79.22 12.6591C78.6476 13.3122 78.3349 14.1527 78.341 15.0211C78.3386 15.4666 78.4175 15.9089 78.574 16.3261C78.719 16.7211 78.938 17.0851 79.219 17.3981C79.5119 17.7173 79.8684 17.9715 80.2656 18.1445C80.6628 18.3174 81.0918 18.4051 81.525 18.4021ZM96.744 13.8421C97.2999 13.9972 97.8491 14.1757 98.39 14.3771C98.869 14.5521 99.322 14.7921 99.735 15.0911C100.115 15.3711 100.43 15.7331 100.655 16.1491C100.899 16.6431 101.017 17.1911 100.998 17.7421C101.021 18.4356 100.859 19.1228 100.531 19.7341C100.219 20.2754 99.7752 20.7291 99.241 21.0531C98.654 21.4061 98.007 21.6531 97.334 21.7801C96.569 21.9301 95.792 22.0041 95.014 22.0001C93.129 22.0001 91.642 21.5881 90.554 20.7641C89.464 19.9401 89.141 18.7581 89.141 17.2201H93.038C93.038 17.9161 93.235 18.4151 93.628 18.7171C94.0708 19.0347 94.6076 19.1942 95.152 19.1701C95.586 19.1891 96.018 19.0901 96.4 18.8821C96.5595 18.7836 96.6888 18.643 96.7735 18.4757C96.8582 18.3084 96.895 18.121 96.88 17.9341C96.8914 17.7097 96.8182 17.4892 96.675 17.3161C96.4951 17.1295 96.2804 16.98 96.043 16.8761C95.688 16.7117 95.3214 16.574 94.946 16.4641C94.496 16.3271 93.961 16.1581 93.34 15.9561C92.8115 15.7984 92.2894 15.6199 91.775 15.4211C91.3117 15.2455 90.8733 15.0102 90.471 14.7211C90.0966 14.4469 89.7915 14.0891 89.58 13.6761C89.3437 13.1793 89.2305 12.6329 89.25 12.0831C89.25 10.7091 89.776 9.69309 90.828 9.03309C91.881 8.37409 93.303 8.04409 95.096 8.04309C95.946 8.02898 96.7931 8.14499 97.608 8.38709C98.26 8.57909 98.868 8.90109 99.392 9.33509C99.849 9.72509 100.21 10.2131 100.449 10.7641C100.687 11.3191 100.809 11.9171 100.806 12.5221H96.661C96.6903 12.0571 96.5379 11.5989 96.236 11.2441C96.0621 11.0821 95.8563 10.9582 95.6317 10.8802C95.4072 10.8022 95.1689 10.7718 94.932 10.7911C94.546 10.7816 94.1653 10.8818 93.834 11.0801C93.6821 11.172 93.5583 11.3037 93.476 11.4609C93.3937 11.6182 93.356 11.7949 93.367 11.9721C93.3595 12.1904 93.4386 12.4028 93.587 12.5631C93.772 12.7451 93.992 12.8901 94.232 12.9891C94.576 13.1391 94.929 13.2681 95.289 13.3731C95.709 13.5031 96.194 13.6581 96.744 13.8411V13.8421Z" fill="#E91E63"/>
</svg>
