<?xml version="1.0" encoding="UTF-8" standalone="no"?>
<!-- Created with Inkscape (http://www.inkscape.org/) -->

<svg
   width="15.999979mm"
   height="15.625331mm"
   viewBox="0 0 15.999979 15.625331"
   version="1.1"
   id="svg1"
   xml:space="preserve"
   xmlns="http://www.w3.org/2000/svg"
   xmlns:svg="http://www.w3.org/2000/svg"><defs
     id="defs1" /><g
     id="layer1"
     transform="translate(-1,-1)"><path
       style="fill:#000000;stroke-width:0.151421"
       d="M 1,8.5926137 C 1,4.1746199 1.00468,2.3672582 1.010403,4.5762544 c 0.00572,2.2089977 0.00572,5.8237196 0,8.0327176 C 1.0046806,14.817967 1,13.010608 1,8.5926137 Z M 4.5324941,16.374933 C 4.7477472,16.110796 4.9093131,15.777448 5.025775,15.35718 5.131996,14.973868 5.1285179,14.953033 4.993725,15.165186 4.8683113,15.362577 4.653305,15.565171 4.4553196,15.672513 4.258025,15.77948 3.7362782,15.769963 3.5205926,15.655453 3.2763772,15.52581 3.1185365,15.323737 3.0611375,15.067251 3.016405,14.867366 2.9998129,14.843798 2.8874308,14.820512 2.8190929,14.806355 2.6351953,14.734028 2.4787694,14.659787 1.8878114,14.379321 1.5507925,13.898976 1.5189633,13.2918 c -0.013472,-0.256975 -0.00951,-0.285622 0.022397,-0.161842 0.1543126,0.598707 0.6582132,1.022774 1.2624214,1.062419 0.2312702,0.01517 0.3140332,0.0029 0.4677948,-0.06938 0.2398916,-0.112763 0.5703326,-0.462506 0.6956941,-0.736331 0.083555,-0.182507 0.1914071,-0.587397 0.1564676,-0.587397 -0.00621,0 -0.051279,0.08262 -0.1001594,0.18359 -0.1418398,0.293 -0.4889415,0.637811 -0.7924693,0.787238 C 3.0059933,13.880926 2.9220141,13.900833 2.6838959,13.899826 2.2357408,13.897926 1.9106167,13.67889 1.7048253,13.240214 1.615113,13.048978 1.6013411,12.966187 1.6013411,12.618106 c 0,-0.370931 0.00979,-0.421393 0.1284804,-0.662458 0.070664,-0.143517 0.173492,-0.303228 0.2285057,-0.35491 l 0.100025,-0.09397 -0.078268,0.205984 c -0.085326,0.22456 -0.1008417,0.542914 -0.037562,0.770724 0.1718131,0.618542 0.896247,0.803006 1.2022932,0.306147 C 3.3499194,12.456641 3.5066687,11.578132 3.6827957,9.7744832 3.7387402,9.2015766 3.7949895,8.6323768 3.8077939,8.5095956 3.8305731,8.2911621 3.8280828,8.2840725 3.6921414,8.1803857 3.4803713,8.0188606 3.3020692,7.8302615 3.1728364,7.6310917 3.096407,7.5133 3.0656273,7.4855248 3.0840425,7.5509643 3.146287,7.7721583 3.3640543,8.1616201 3.4807019,8.2603617 L 3.604512,8.3651675 3.4843218,8.3371638 C 3.0399991,8.2336434 2.513306,7.7987478 2.3194571,7.3753267 2.2020618,7.1189018 2.1038111,6.686556 2.1028294,6.4220708 2.099165,5.4350874 2.6349835,4.1149813 3.3416945,3.3698547 3.8445816,2.8396291 4.6456948,2.2817251 5.4808602,1.8801149 5.9925112,1.6340742 6.2058115,1.5524175 5.9882857,1.6858601 c -0.070325,0.04314 -0.076318,0.053891 -0.020121,0.036091 0.2594286,-0.08217 0.5291214,-0.1075011 0.977398,-0.091802 0.4435399,0.015533 0.5423137,0.032434 0.8111565,0.1387954 0.7997495,0.3164042 1.5361794,1.0185289 1.9674895,1.8758356 0.1615278,0.321065 0.4074703,1.069447 0.4714963,1.4347226 0.06241,0.3560629 0.07192,0.3776055 0.17829,0.4043056 0.145724,0.036574 0.168445,0.1710267 0.05038,0.2981096 -0.124195,0.133679 -0.245945,0.3236 -0.222484,0.3470611 0.02756,0.02756 0.308981,-0.3235362 0.353782,-0.4413719 0.07407,-0.194821 0.05154,-0.293408 -0.07027,-0.3074221 -0.08458,-0.00974 -0.112972,-0.036745 -0.122216,-0.1162654 -0.01685,-0.144943 0.0659,-0.1972604 0.391741,-0.2476971 0.306257,-0.047404 0.339508,-0.035216 0.382863,0.1403504 0.02299,0.093089 0.01136,0.1155401 -0.07729,0.1492448 -0.111703,0.04247 -0.135456,0.1490557 -0.06327,0.2839262 0.03272,0.061142 0.320209,0.2223205 0.700099,0.3925053 0.02203,0.00987 0.0053,-0.021186 -0.03716,-0.069018 C 11.6177,5.8654014 11.470173,5.7707432 11.332326,5.7028824 11.194488,5.6350204 11.072249,5.5548582 11.060693,5.5247422 11.039,5.4682107 11.117033,5.3672978 11.205152,5.3379237 11.33741,5.2938391 11.052118,4.2945285 10.698904,3.564653 9.9284707,1.972645 8.6515824,1.1174341 7.317719,1.3000657 7.1379329,1.3246807 6.7974228,1.4062011 6.5610303,1.4812195 6.3246377,1.5562394 6.1245184,1.6109114 6.1163211,1.6027135 6.0632761,1.5496693 7.4099776,1.1880234 8.1517103,1.0561268 8.6467664,0.9680953 9.5007809,0.985754 9.9883666,1.0941048 11.094727,1.3399591 11.890487,1.740237 12.595995,2.4057767 c 0.499813,0.4714986 0.863444,1.0235561 1.201595,1.8242421 0.38357,0.9082203 0.51749,1.3745464 0.769631,2.67993 0.224671,1.1631675 0.506013,2.3545341 0.837305,3.5456122 0.38462,1.382827 0.415886,1.565738 0.417731,2.443869 0.0012,0.603981 -0.01293,0.814993 -0.06872,1.021617 -0.103535,0.383436 -0.361006,0.879202 -0.636933,1.226429 l -0.243119,0.305938 0.174708,-0.120556 c 0.571975,-0.39469 1.12692,-1.263125 1.26198,-1.974873 0.07659,-0.403607 0.03198,-0.92419 -0.103168,-1.203908 l -0.08263,-0.171013 0.114809,0.109994 c 0.257349,0.246556 0.446025,0.802237 0.446025,1.313611 0,0.419826 -0.05836,0.674 -0.244073,1.063058 -0.252145,0.528218 -0.670875,0.927834 -1.30974,1.249953 -0.315436,0.159043 -0.422893,0.311609 -0.392011,0.556569 0.01656,0.131318 0.0072,0.177275 -0.03961,0.195249 -0.08397,0.03223 -0.08864,0.02412 -0.169455,-0.294105 -0.130146,-0.512486 -0.575935,-1.094837 -1.004241,-1.311876 -0.249061,-0.126208 -0.716602,-0.224884 -1.041038,-0.219712 l -0.226839,0.0037 0.280444,0.05199 c 0.154243,0.02858 0.377838,0.09088 0.496878,0.138428 0.485222,0.1938 1.141844,0.760057 1.322687,1.140657 0.04288,0.09025 0.09052,0.251483 0.105876,0.358309 0.02495,0.173663 0.02024,0.192752 -0.04446,0.180286 -0.0398,-0.0077 -0.08563,-0.06358 -0.101862,-0.124233 -0.03572,-0.133578 -0.315653,-0.52848 -0.594185,-0.838225 -0.509672,-0.566791 -0.931446,-0.746386 -1.625634,-0.692211 -0.468372,0.03655 -0.658974,0.09688 -0.913408,0.289121 -0.38585,0.291529 -1.176552,1.130404 -1.2804721,1.358483 -0.032392,0.07109 -0.074963,0.09328 -0.178993,0.09328 -0.111032,0 -0.1326944,-0.01308 -0.1161425,-0.07011 0.01119,-0.03856 0.041329,-0.151139 0.066975,-0.250171 0.065688,-0.25366 0.2096086,-0.522647 0.2296747,-0.429261 0.01116,0.05192 0.070126,-0.0061 0.2133559,-0.210091 0.277632,-0.395334 0.713406,-0.726539 1.177218,-0.894728 l 0.200839,-0.07283 -0.205479,0.02284 c -0.493313,0.05484 -1.209792,0.407469 -1.5155695,0.745931 -0.1889503,0.209143 -0.4793861,0.657617 -0.6084481,0.939526 -0.096805,0.211452 -0.1056067,0.218893 -0.2589385,0.218893 -0.1442989,0 -0.1549709,-0.0071 -0.1174144,-0.07719 0.022722,-0.04246 0.1229595,-0.146119 0.2227504,-0.230365 0.09979,-0.08425 0.2874298,-0.297402 0.4169733,-0.473682 0.129545,-0.176279 0.3902411,-0.471128 0.5793278,-0.655222 0.276225,-0.268933 0.322257,-0.329359 0.234218,-0.307453 -0.06027,0.01499 -0.197009,0.08092 -0.3038742,0.146503 -0.1068651,0.06559 -0.3322216,0.193469 -0.5007923,0.284189 -0.1685707,0.09071 -0.40565,0.231085 -0.5268412,0.311921 -0.1211922,0.08083 -0.3443024,0.215816 -0.4958009,0.299952 -0.2696902,0.149776 -0.2739761,0.150723 -0.2049059,0.04531 0.0388,-0.05922 0.060507,-0.117706 0.048236,-0.129977 -0.040377,-0.04038 -0.2454413,0.140833 -0.5273066,0.465969 L 7.4556842,16.605301 H 7.2384941 7.0213039 l 0.2250086,-0.243036 c 0.2279961,-0.246264 0.3777568,-0.478105 0.3088369,-0.478105 -0.047244,0 -0.4691028,0.462557 -0.5572098,0.610965 -0.050621,0.08527 -0.095766,0.110176 -0.1996916,0.110176 -0.116052,0 -0.1308311,-0.01087 -0.1088526,-0.08013 0.034384,-0.108332 -0.048205,-0.103669 -0.1774165,0.01002 l -0.1024541,0.09014 0.076034,-0.09014 c 0.094126,-0.111594 0.028154,-0.116196 -0.1457496,-0.01013 -0.1211458,0.07386 -0.2024225,0.08 -1.0631101,0.08013 l -0.9319355,1.5e-4 z m 4.0301007,-0.956424 c 0.535416,-0.248938 1.229562,-0.669703 1.261147,-0.764458 0.00773,-0.0233 -0.030074,-0.05346 -0.084091,-0.06702 C 9.6094458,14.554351 9.0433109,14.132415 8.8963904,13.958553 8.8324064,13.882833 8.7455173,13.74316 8.7033054,13.648162 8.6124484,13.443695 8.6484914,13.426219 8.1305305,13.925873 7.7911952,14.253214 7.7533841,14.277995 7.5195634,14.32629 7.3824781,14.3546 7.2703927,14.38768 7.2704845,14.3998 c 9.21e-5,0.01211 0.1442602,0.247388 0.3203734,0.522824 0.1761134,0.275437 0.331287,0.559386 0.3448305,0.630999 0.013543,0.07161 0.031738,0.130207 0.040432,0.130207 0.00869,0 0.2726087,-0.119398 0.5864767,-0.26533 z M 3.8615072,15.177719 C 4.031543,15.143709 4.3681552,14.834575 4.4835609,14.606437 4.6181288,14.34042 4.7330441,13.94086 4.76134,13.640604 l 0.024541,-0.260411 -0.072465,0.24038 c -0.106579,0.35354 -0.2306797,0.611403 -0.4060117,0.843627 -0.1978743,0.262083 -0.433404,0.377738 -0.8303946,0.407764 -0.1612397,0.01219 -0.293163,0.03445 -0.293163,0.04947 0,0.04674 0.175435,0.194756 0.2804645,0.236636 0.1207035,0.04813 0.2282053,0.05346 0.3971966,0.01966 z M 14.90477,13.140557 c 0.242298,-0.528913 0.273411,-0.913746 0.122099,-1.510235 -0.0846,-0.333473 -0.417282,-1.215813 -0.447161,-1.185934 -0.0061,0.0062 0.01238,0.102444 0.04127,0.213864 0.112454,0.433523 0.153035,1.058896 0.102625,1.581551 -0.04698,0.487094 -0.191819,1.146039 -0.297668,1.354215 -0.02983,0.05867 -0.06651,0.151753 -0.08149,0.20684 -0.05519,0.202804 0.423166,-0.360887 0.560331,-0.660301 z M 8.3209667,13.268479 C 8.5073138,13.102371 8.5096626,13.097258 8.47216,12.939494 8.3728248,12.521616 8.4564618,11.695329 8.7722473,9.9748006 8.8693094,9.4459637 8.9701225,8.8600364 8.9962744,8.6727395 9.0563838,8.2422336 9.0655886,7.2068515 9.0097962,7.1510635 8.9871891,7.1284564 8.8442631,7.0874093 8.6921815,7.0598461 L 8.4156706,7.0097319 8.3477106,6.7895706 8.2797505,6.5694109 8.2758225,6.7746966 8.2718947,6.9799838 7.6809593,7.0003695 7.0900237,7.0207538 6.9793576,6.8894553 6.8686913,6.7581569 6.5631219,6.8721525 c -0.168063,0.062699 -0.398176,0.175483 -0.5113618,0.2506348 -0.113186,0.075152 -0.2474339,0.149855 -0.2983289,0.1660086 -0.086431,0.027431 -0.089343,0.023172 -0.044139,-0.064564 0.026618,-0.051663 0.094639,-0.143512 0.1511561,-0.2041077 C 5.9826668,6.8890858 5.9683761,6.8872143 5.6081763,6.9870945 5.4551604,7.0295241 5.3113223,7.0535424 5.288536,7.0404673 5.1192248,6.9433126 4.9102921,6.7354453 4.7388411,6.4935763 4.5120645,6.1736575 4.5157518,6.2548432 4.7493027,6.723916 c 0.1577225,0.3167753 0.1664112,0.3863502 0.048247,0.3863502 -0.035324,0 -0.1615228,0.03067 -0.2804424,0.068157 l -0.2162169,0.068158 0.092505,0.071174 0.092505,0.071175 -0.1722589,9.115e-4 c -0.094742,4.543e-4 -0.2249294,0.028128 -0.2893042,0.061418 -0.1013897,0.052429 -0.1121092,0.073506 -0.080144,0.1575835 0.080079,0.2106248 0.1295227,0.2574427 0.2310954,0.2188242 0.1691968,-0.064329 0.3148121,-0.03906 0.4848859,0.084142 0.096057,0.069582 0.1662016,0.099188 0.1661151,0.07011 C 4.8259724,7.8728637 4.6612166,7.6702657 4.5102228,7.5932334 4.3169142,7.4946146 4.2499453,7.4117299 4.4135007,7.4735247 4.5513791,7.525618 4.7341609,7.6943128 4.8099853,7.8394528 4.8923794,7.9971666 4.8788118,8.1850252 4.7686095,8.4123457 4.6536242,8.6495312 4.5775888,8.7422886 4.3757269,8.8916274 4.2923618,8.9533024 4.225489,9.0372094 4.225489,9.0801371 c 0,0.116479 0.1016168,0.2901737 0.3012829,0.5149882 0.1904998,0.2144922 0.2091019,0.2810143 0.1223745,0.4376107 -0.049573,0.08951 -0.043674,0.111159 0.06822,0.250397 0.067366,0.08383 0.1510168,0.152691 0.18589,0.153029 0.055567,6.06e-4 0.055976,0.0054 0.00331,0.03945 -0.043668,0.02822 -0.045759,0.039 -0.00765,0.03945 0.028845,3.02e-4 0.041302,0.01865 0.027683,0.04068 -0.013618,0.02203 -0.00488,0.04006 0.019423,0.04006 0.024302,0 0.038887,-0.03097 0.032412,-0.06881 -0.00831,-0.04864 0.023457,-0.0756 0.1084183,-0.09195 l 0.1201938,-0.02314 -0.1201901,-0.04511 c -0.066104,-0.02481 -0.097019,-0.04653 -0.068698,-0.04827 0.028321,-0.0017 0.1884633,0.0694 0.3558717,0.158102 0.18809,0.09965 0.3329605,0.152195 0.379189,0.137522 0.049701,-0.01577 0.074809,-0.0042 0.074809,0.0347 0,0.05593 -0.3111571,0.210041 -0.348559,0.172638 -0.00993,-0.0099 0.023872,-0.03189 0.075112,-0.04881 l 0.093163,-0.03076 -0.1001584,-0.02901 c -0.2730175,-0.07905 -0.7022923,-0.02687 -0.7665392,0.09317 -0.065136,0.121706 0.045863,0.208955 0.2552082,0.200606 0.1197865,-0.0048 0.1522971,0.0043 0.1102434,0.03093 -0.032803,0.02074 -0.093399,0.03799 -0.1346585,0.03832 -0.062124,4.55e-4 -0.066445,0.01095 -0.025142,0.06071 0.083726,0.100884 0.010815,0.06715 -0.138828,-0.06425 -0.077895,-0.06839 -0.1416219,-0.159715 -0.1416219,-0.20295 0,-0.04323 -0.018446,-0.113076 -0.04099,-0.155203 -0.034284,-0.06406 -0.029705,-0.07226 0.027986,-0.05013 0.05694,0.02185 0.053351,0.0045 -0.020572,-0.09929 C 4.5216091,10.352699 4.4914614,10.219173 4.5632722,10.080307 4.6701359,9.873655 4.6439382,9.7685111 4.428944,9.5411862 4.3204957,9.4265182 4.2176856,9.2788618 4.2004768,9.2130604 L 4.1691883,9.0934228 4.1395521,9.2536775 c -0.084046,0.4544669 -0.018451,0.9483215 0.194229,1.4623145 0.1272968,0.307644 0.6169114,1.231636 0.7773019,1.466908 0.2210256,0.32422 0.570366,0.379563 1.503182,0.238137 0.2671701,-0.0405 0.5311726,-0.06225 0.5866721,-0.04832 0.1464899,0.03677 0.4226485,0.334193 0.6726508,0.724453 0.1199115,0.187183 0.227035,0.340272 0.2380525,0.340195 0.011017,-7.5e-5 0.1052114,-0.07607 0.2093198,-0.168869 z M 4.9347924,10.889477 c -0.028698,-0.04644 0.03818,-0.160522 0.073433,-0.125268 0.014235,0.01423 0.00869,0.0566 -0.012309,0.09413 -0.021006,0.03753 -0.04851,0.05155 -0.061124,0.03114 z M 4.8720873,9.4705589 c -0.064431,-0.052234 -0.075573,-0.076678 -0.034953,-0.076678 0.06,0 0.1745672,0.1086383 0.1452591,0.1377415 -0.00865,0.00859 -0.058286,-0.018891 -0.1103061,-0.061063 z M 6.7770219,8.4444938 c -0.012401,-0.020067 -0.095783,-0.03457 -0.1852933,-0.032232 -0.08951,0.00233 -0.1627454,-0.012144 -0.1627454,-0.032176 0,-0.020035 -0.027979,-0.025689 -0.062176,-0.012568 -0.034198,0.013127 -0.051846,0.00715 -0.039221,-0.01328 0.012625,-0.020429 -0.00897,-0.05764 -0.047998,-0.082692 -0.064203,-0.041216 -0.06333,-0.042917 0.00917,-0.017861 0.04407,0.01523 0.152241,0.045052 0.2403805,0.066272 0.4105164,0.098837 1.0216173,-0.1463876 1.0216173,-0.4099583 0,-0.035108 -0.075138,-0.1060641 -0.166973,-0.1576789 -0.1338947,-0.075253 -0.162003,-0.080893 -0.1418859,-0.028468 0.015183,0.039566 -0.00118,0.08008 -0.041468,0.1026209 -0.055881,0.031274 -0.058087,0.04745 -0.013753,0.1008672 0.079864,0.096229 -0.1549353,0.3047039 -0.3431792,0.3047039 -0.1547055,0 -0.3536959,-0.172344 -0.315105,-0.2729101 0.012194,-0.031777 -0.00792,-0.079773 -0.044674,-0.1066564 -0.056719,-0.041474 -0.059832,-0.069 -0.020547,-0.1816912 0.025465,-0.073048 0.039466,-0.1396448 0.031117,-0.1479957 C 6.4667649,7.4952682 6.2217864,7.7229927 6.187353,7.8081094 6.158376,7.8797364 6.153258,7.8812774 6.151076,7.8190264 6.149686,7.7791644 6.130508,7.7576934 6.108473,7.7713114 c -0.022034,0.013612 -0.040064,0.00674 -0.040064,-0.015303 0,-0.022034 0.016423,-0.050214 0.036496,-0.062619 0.020072,-0.012401 0.031401,-0.054035 0.025177,-0.092507 -0.00623,-0.038474 0.00832,-0.094567 0.032341,-0.1246527 0.050334,-0.063064 0.069294,-0.2523912 0.022372,-0.2233911 -0.017234,0.010644 -0.024143,0.056696 -0.015357,0.1023241 0.010941,0.056812 -9.205e-4,0.076475 -0.037644,0.062383 -0.029491,-0.011311 -0.076491,6.057e-4 -0.1044436,0.026372 -0.072145,0.066646 -0.00799,-0.042266 0.09398,-0.1595415 0.08186,-0.094146 0.3770161,-0.1775197 0.6000819,-0.169505 0.1275823,0.00458 0.1274683,0.00475 -0.022447,0.033829 -0.2317338,0.04494 -0.2154329,0.068731 0.062371,0.091031 0.2584808,0.020748 0.7943547,0.2448293 0.8939943,0.3738322 0.024464,0.031674 0.083058,0.057589 0.1302061,0.057589 0.047149,0 0.085726,0.018027 0.085726,0.040063 0,0.022036 0.040565,0.040992 0.090143,0.042129 0.06884,0.00157 0.053856,0.017103 -0.063405,0.065701 -0.095669,0.039649 -0.1357433,0.074641 -0.1063135,0.092829 0.029553,0.018264 -0.00296,0.047542 -0.086832,0.078212 -0.1207451,0.04415 -0.1261049,0.052356 -0.05394,0.082578 0.070053,0.029337 0.065977,0.033909 -0.032412,0.036371 -0.064273,0.00161 -0.1019195,0.019998 -0.087778,0.042879 0.013618,0.022034 -0.00334,0.040065 -0.037698,0.040065 -0.074705,0 -0.083012,0.064277 -0.01238,0.095797 0.027544,0.012295 0.00501,0.018302 -0.050079,0.013356 -0.063133,-0.00567 -0.096353,0.00983 -0.089865,0.041918 0.00717,0.03543 -0.020251,0.043245 -0.090143,0.025704 -0.058297,-0.014627 -0.1004367,-0.00797 -0.1004367,0.015873 0,0.022919 -0.066421,0.035718 -0.1502376,0.028952 -0.082631,-0.00668 -0.1615058,0.00577 -0.1752777,0.027635 -0.014592,0.023174 -0.034447,0.024542 -0.047588,0.00328 z M 4.498427,7.7239126 c 0.02892,-0.011569 0.063476,-0.010145 0.076787,0.00316 0.013314,0.01331 -0.01035,0.022783 -0.052583,0.021043 C 4.47596,7.7461956 4.466466,7.7366986 4.498427,7.7239126 Z M 6.9022325,7.1630258 c 0.02892,-0.011568 0.063476,-0.010145 0.076787,0.00316 0.013314,0.01331 -0.01035,0.022782 -0.052584,0.021041 -0.046671,-0.00192 -0.056165,-0.011417 -0.024204,-0.024204 z m 3.3881605,5.8930952 c 0.173165,-0.137006 0.205102,-0.229864 0.151942,-0.441769 -0.02147,-0.08559 -0.05007,-0.204678 -0.06356,-0.264642 l -0.02452,-0.109024 -0.310017,0.185414 c -0.4367797,0.261227 -0.5017423,0.32599 -0.4726952,0.471229 0.013037,0.06514 0.063975,0.1616 0.1132154,0.214351 0.1246004,0.133489 0.3984568,0.108367 0.6056408,-0.05556 z M 9.7338415,12.158862 c 0.013417,-0.0217 0.1510172,-0.113415 0.3057865,-0.203806 0.170594,-0.09963 0.273714,-0.18438 0.261878,-0.215224 -0.01073,-0.02798 -0.03076,-0.22022 -0.0445,-0.427193 -0.05511,-0.830424 -0.03904,-0.829639 -0.3217779,-0.01575 -0.3200918,0.921408 -0.3141909,0.901429 -0.2661739,0.901429 0.02222,0 0.051375,-0.01776 0.064787,-0.03947 z m 2.5776545,-0.341143 c -8.69e-4,-0.06441 -0.0075,-0.06048 -0.03325,0.02004 -0.04387,0.136983 -0.04387,0.242312 0,0.140221 0.01894,-0.04407 0.0339,-0.116183 0.03325,-0.160253 z m 0.03334,-0.230365 c -0.01112,-0.02754 -0.02021,-0.005 -0.02021,0.05008 0,0.05508 0.0091,0.07762 0.02021,0.05008 0.01112,-0.02754 0.01112,-0.07262 0,-0.100154 z m 1.484147,-0.159787 c -0.0096,-0.04984 -0.01778,-0.0185 -0.01823,0.06964 -4.54e-4,0.08814 0.0074,0.128914 0.01742,0.09061 0.01002,-0.03831 0.01039,-0.110419 7.57e-4,-0.160255 z m -0.996814,-0.69156 c -0.0031,-0.728604 -0.02454,-0.618028 -0.04287,0.220348 -0.008,0.363576 -10e-4,0.588933 0.01538,0.500793 0.0164,-0.08814 0.02878,-0.412654 0.02749,-0.721141 z m 0.908694,-0.08832 C 13.649846,9.983432 13.467621,9.1756518 13.262306,8.5263111 13.165846,8.221236 12.983976,7.6200727 12.858151,7.1903935 12.47723,5.8895738 12.146366,4.9992787 11.753403,4.2177157 11.666976,4.0458273 11.606738,3.9051923 11.619534,3.9051923 c 0.01279,0 0.1583,0.056217 0.323348,0.1249251 l 0.300084,0.1249253 0.09761,-0.091696 c 0.05368,-0.050433 0.106057,-0.083246 0.116387,-0.072915 0.01033,0.010326 0.145253,0.2793259 0.299826,0.5977699 0.154574,0.3184439 0.281407,0.5647344 0.281851,0.5473119 C 13.039094,5.1180905 12.95957,4.9107642 12.861964,4.674784 12.764344,4.4388055 12.655651,4.1736177 12.62042,4.0854786 L 12.55637,3.925224 12.660156,4.0454142 c 0.05709,0.066106 0.210565,0.3365328 0.341071,0.6009513 0.130509,0.2644201 0.237569,0.466155 0.237915,0.4483009 3.04e-4,-0.017855 -0.07819,-0.2251809 -0.174511,-0.4607295 C 12.968298,4.3983893 12.87729,4.1425683 12.862384,4.0654467 l -0.0271,-0.1402232 0.08205,0.094581 c 0.09429,0.1086958 0.09447,0.1084445 0.04478,-0.064797 -0.0205,-0.071468 -0.03157,-0.1299417 -0.02463,-0.1299417 0.01442,0 0.302468,0.4799342 0.396751,0.6610457 0.135265,0.2598158 0.05527,0.040728 -0.1347,-0.3689304 C 13.08927,3.879396 13.030676,3.7251724 13.06933,3.7744613 c 0.0686,0.087492 0.07028,0.082028 0.07028,-0.2302564 0,-0.1759313 0.0025,-0.3199234 0.0053,-0.3199824 0.003,-5.91e-5 0.07854,0.1125707 0.16804,0.2502879 0.230811,0.3551575 0.391608,0.7149363 0.658033,1.472331 0.240556,0.6838541 0.280775,0.7090672 0.06391,0.040063 -0.328087,-1.012072 -0.651005,-1.6280502 -1.11315,-2.1233597 l -0.205595,-0.2203491 0.08152,0.1686736 c 0.05443,0.1126268 0.08081,0.2457484 0.07942,0.4006338 -0.002,0.2307895 -0.0025,0.2314573 -0.07011,0.1324038 -0.0374,-0.054756 -0.119103,-0.1539132 -0.18155,-0.220349 -0.111088,-0.118181 -0.110752,-0.1164638 0.01553,0.079524 l 0.129065,0.2003177 -0.310227,-0.3004749 -0.310225,-0.3004764 0.204552,0.2837126 c 0.112501,0.1560422 0.204548,0.2957642 0.204548,0.3104914 0,0.014733 -0.05465,0.026779 -0.121447,0.026779 -0.0709,0 -0.131028,0.024967 -0.144469,0.059994 -0.0167,0.043513 -0.06681,0.00499 -0.182436,-0.1402217 -0.08769,-0.1101188 -0.167579,-0.2002156 -0.177544,-0.2002156 -0.0099,0 0.05466,0.1071817 0.143631,0.2381818 0.180992,0.2665249 0.190004,0.3052038 0.09544,0.4096932 -0.0815,0.090059 -0.126497,0.090762 -0.426217,0.00666 -0.213713,-0.059963 -0.249251,-0.085913 -0.35662,-0.2604102 -0.129235,-0.2100329 -0.169628,-0.2457606 -0.117201,-0.1036673 0.01829,0.049578 0.04544,0.1689115 0.06034,0.2651832 l 0.02708,0.1750394 -0.221585,-0.027684 c -0.121872,-0.015227 -0.221586,-0.018548 -0.221586,-0.00737 0,0.011175 0.01673,0.064299 0.03717,0.1180704 0.02929,0.077052 0.05864,0.093661 0.138489,0.078395 0.132387,-0.025307 0.340009,0.1041518 0.478848,0.2985761 l 0.10816,0.1514632 -0.02414,-0.1402217 c -0.02951,-0.1714598 0.01198,-0.1245542 0.183942,0.207928 0.2662,0.5146975 0.624382,1.5358217 0.981044,2.7968283 0.102832,0.3635764 0.267811,0.9134459 0.36662,1.2219355 0.252542,0.7884693 0.558252,2.1787512 0.580367,2.6393582 0.0057,0.118493 0.0069,0.119362 0.02252,0.01667 0.0091,-0.05959 -0.01263,-0.321005 -0.04824,-0.580921 z M 4.6588257,10.295139 c -0.025142,-0.05518 -0.053259,-0.09278 -0.062483,-0.08356 -0.018712,0.01872 0.062517,0.183887 0.090431,0.183887 0.00977,0 -0.0028,-0.04515 -0.027949,-0.100328 z M 12.786372,9.9873199 c -0.0128,-0.031959 -0.02229,-0.022466 -0.02421,0.024204 -0.0017,0.04223 0.0078,0.0659 0.02105,0.05258 0.01332,-0.01331 0.01474,-0.04787 0.0032,-0.076787 z M 4.3116579,8.7879268 c -0.088437,-0.033478 -0.1262262,-0.00672 -0.1262262,0.089366 0,0.077343 0.00276,0.077563 0.096179,0.00765 0.082702,-0.061897 0.086912,-0.075489 0.030047,-0.097017 z M 4.46449,8.4897368 C 4.424012,8.4103408 4.399978,8.3217022 4.411084,8.2927642 4.42219,8.2638242 4.4120219,8.2282452 4.38848,8.2136982 4.364943,8.1991472 4.345686,8.1438082 4.345686,8.0907128 c 0,-0.06935 -0.016923,-0.090043 -0.060095,-0.073476 -0.043262,0.016602 -0.060095,0.084319 -0.060095,0.2417569 0,0.3122025 0.1036724,0.4869102 0.2442801,0.4116587 0.064017,-0.034261 0.063684,-0.045638 -0.00529,-0.1809161 z m 6.671945,-0.6316366 c 0.154244,0.00314 0.361573,0.018473 0.46073,0.034101 l 0.180286,0.028417 -0.100155,-0.1098649 C 11.465263,7.5781837 11.102849,7.5248714 10.796371,7.6811695 c -0.09722,0.04958 -0.183162,0.1111656 -0.190992,0.1368587 -0.01703,0.055878 0.10595,0.09408 0.190516,0.059184 0.03305,-0.013643 0.186296,-0.022239 0.34054,-0.019112 z M 6.7590449,6.7164691 C 6.8212292,6.6918331 6.8135684,6.6637657 6.6875666,6.4545975 6.456177,6.0704793 6.3829856,5.9121447 6.2035733,5.4075712 6.0176936,4.8848091 5.9826968,4.8922772 6.1097042,5.4276027 6.2198732,5.8919557 6.3380596,6.2449494 6.4752273,6.5193315 6.5890275,6.7469699 6.6228185,6.7704401 6.7590449,6.7164691 Z M 14.348844,6.2213595 c -0.01279,-0.03196 -0.02229,-0.022466 -0.02421,0.024205 -0.0017,0.042235 0.0078,0.065897 0.02104,0.052584 0.01331,-0.01331 0.01474,-0.047869 0.0032,-0.076789 z m -0.07029,-0.3702299 c -0.02754,-0.1230369 -0.05778,-0.2159775 -0.06723,-0.2065334 -0.0094,0.00945 0.0054,0.1178372 0.0329,0.2408741 0.02754,0.123037 0.05778,0.2159777 0.06723,0.2065335 0.0094,-0.00945 -0.0054,-0.1178356 -0.03289,-0.2408742 z M 2.9708334,5.5803439 c -0.012789,-0.03196 -0.022282,-0.022466 -0.024204,0.024206 -0.00174,0.042233 0.00773,0.065895 0.021042,0.052583 0.013313,-0.01331 0.014736,-0.047867 0.00316,-0.076788 z M 2.8040176,4.8161307 c 0.083485,-0.1930842 0.1582649,-0.3445883 0.1661772,-0.336675 0.00792,0.00792 -0.013136,0.080253 -0.046773,0.1607589 l -0.061158,0.1463739 0.1307438,0.00475 c 0.071909,0.00261 0.146477,0.00187 0.1657063,-0.00164 0.01923,-0.00352 0.025115,0.019279 0.01308,0.050645 C 3.116957,4.9832371 2.9836643,5.4407006 2.9848582,5.4819007 2.9855852,5.5071228 3.0450987,5.374516 3.1171016,5.1872206 3.1891044,4.9999238 3.2781594,4.7925953 3.3150018,4.7264911 l 0.066986,-0.1201903 -0.025198,0.1364347 c -0.018097,0.097987 -0.012145,0.12837 0.021119,0.1078101 0.030759,-0.019009 0.046766,0.00917 0.04765,0.083915 l 0.00133,0.1125391 0.084706,-0.1001584 0.084706,-0.1001584 -0.023611,0.220349 L 3.5490788,5.287381 3.6611985,4.9869046 C 3.7228671,4.8216409 3.8299886,4.5622419 3.8992495,4.4104577 4.0296791,4.1246238 4.0648308,4.0065867 3.9645618,4.1911415 3.923633,4.2664747 3.8675489,4.3014287 3.7691813,4.3129124 L 3.6312084,4.3290207 3.6936906,4.207248 C 3.7280557,4.140273 3.8164749,3.9908268 3.8901775,3.8751428 4.0677449,3.5964347 4.0295436,3.6073052 3.8197825,3.8951743 3.72746,4.0218757 3.6471149,4.1316996 3.6412384,4.1392282 3.6353618,4.1467539 3.602414,4.1371689 3.5680214,4.1179218 3.5150407,4.0882722 3.5332785,4.0402853 3.6874237,3.803757 3.860479,3.5382119 3.8623416,3.5324094 3.7255926,3.6848418 3.6465217,3.7729807 3.5514944,3.8946746 3.5144206,3.9552702 3.4626214,4.039934 3.4161011,4.065444 3.3135052,4.065444 H 3.1799965 L 3.307598,3.8799823 C 3.3777788,3.7779777 3.5175244,3.5931852 3.618144,3.4693322 3.7655989,3.2878285 3.709646,3.3296358 3.3297142,3.6848418 2.8307231,4.1513586 2.6687684,4.3847692 2.64213,4.6757894 2.628754,4.8219332 2.63251,4.8293134 2.685487,4.7611004 2.717387,4.7200304 2.691607,4.8306574 2.628183,5.0069351 2.5647649,5.1832142 2.500753,5.3905427 2.4859328,5.4676642 2.4572017,5.6171757 2.4612207,5.6089444 2.8040172,4.8161278 Z M 8.2592049,5.019457 c -0.012789,-0.03196 -0.022282,-0.022466 -0.024205,0.024206 -0.00174,0.042233 0.00773,0.065895 0.021042,0.052584 0.013314,-0.01331 0.014736,-0.047869 0.00316,-0.076788 z M 4.7662537,3.9652881 C 4.8038486,3.8771477 4.8969179,3.6802658 4.9730734,3.5277714 5.1653707,3.1427144 5.0440865,3.2656469 4.6640926,3.8409506 4.3775268,4.2748044 4.1064876,4.5607444 4.0424796,4.4967374 4.0309489,4.4851991 4.1119044,4.2978128 4.2223822,4.0803074 4.3328601,3.8628021 4.3874,3.7278619 4.3435823,3.7804412 c -0.099728,0.1196664 -0.5017802,0.834689 -0.53759,0.9560679 -0.023279,0.078906 -0.012079,0.090142 0.089865,0.090142 0.083707,0 0.1286502,-0.026757 0.1598093,-0.095144 0.023843,-0.052328 0.099882,-0.1148497 0.1689764,-0.1389362 0.1158306,-0.04038 0.1236751,-0.037646 0.1006034,0.035048 -0.014218,0.044799 -0.00656,0.078842 0.01774,0.078842 0.023519,0 0.042954,0.067605 0.043188,0.1502381 3.482e-4,0.1243013 0.027295,0.074158 0.1560748,-0.2904599 0.085607,-0.2423838 0.18641,-0.5128122 0.2240045,-0.600951 z M 8.2138702,4.6965552 8.1855535,4.4462703 8.2888221,4.5432858 C 8.4173957,4.6640741 8.4175824,4.6346499 8.2903561,4.301703 8.1665931,3.9778183 7.9746592,3.6534037 7.7225089,3.3419024 7.5220943,3.0943143 7.4671206,3.0627991 7.5629641,3.2504398 c 0.06662,0.1304263 0.1502861,0.4960544 0.143401,0.6266776 -0.00357,0.067789 -0.00889,0.071964 -0.022969,0.01806 -0.010074,-0.038561 -0.041288,-0.07011 -0.069357,-0.07011 -0.028069,0 -0.071085,-0.040564 -0.095591,-0.090144 -0.037717,-0.076307 -0.041074,-0.064818 -0.021876,0.074858 0.019486,0.1417693 0.00939,0.1743869 -0.071741,0.2316587 -0.092728,0.065463 -0.09571,0.063942 -0.1663213,-0.084875 -0.06947,-0.1464087 -0.071091,-0.1472915 -0.047948,-0.026116 0.023058,0.1207354 0.016385,0.1281369 -0.1788056,0.1983265 -0.2011497,0.072331 -0.202555,0.074038 -0.1771548,0.2151234 0.03425,0.1902346 0.033419,0.1893139 0.1984912,0.2202809 0.2097813,0.039356 0.3236841,0.099868 0.3706821,0.1969288 0.039645,0.081876 0.041552,0.080931 0.044146,-0.021901 0.00182,-0.072148 0.030041,-0.1161488 0.085858,-0.1338649 0.101083,-0.032082 0.1018009,-0.031416 0.1767771,0.1642233 l 0.060262,0.1572437 -0.021548,-0.220349 -0.021547,-0.2203491 0.099865,0.1602532 c 0.054925,0.088141 0.1177197,0.1872969 0.1395427,0.220349 0.028714,0.043488 0.041348,-0.00633 0.045718,-0.1802846 l 0.00604,-0.2403806 0.084156,0.2503955 c 0.046286,0.1377188 0.092028,0.2503971 0.1016494,0.2503971 0.00962,0 0.00475,-0.1126283 -0.010824,-0.2502861 z M 5.4706549,4.5499844 c 0.1729115,-0.051805 0.2349201,-0.024538 0.2365733,0.1040337 3.331e-4,0.026243 0.015379,0.05684 0.033427,0.067994 0.018048,0.011159 0.026966,-0.03736 0.019818,-0.10781 L 5.7474762,4.4861121 5.8284712,4.6463653 5.9094662,4.80662 5.8892212,4.6463653 C 5.8780866,4.5582263 5.8676896,4.2697696 5.8661156,4.0053511 L 5.8632456,3.5245901 5.7567254,3.8559336 C 5.6530964,4.1782842 5.6459842,4.1884143 5.4946895,4.2291541 5.4091555,4.2521851 5.3310941,4.2629501 5.3212189,4.2530761 5.3113389,4.2432061 5.3315469,4.1131663 5.3661149,3.9641107 5.4501529,3.6017455 5.4146279,3.584255 5.3223279,3.9425517 5.2822109,4.0982835 5.2347519,4.225701 5.2168653,4.225701 5.1989783,4.225701 5.096301,4.181086 4.9886935,4.126558 L 4.7930529,4.0274131 4.7144496,4.2601696 c -0.074627,0.220985 -0.075117,0.2373793 -0.00969,0.3241253 0.061993,0.082185 0.089689,0.088512 0.2755853,0.062944 0.197874,-0.027215 0.2067343,-0.024429 0.2082703,0.065479 l 0.00161,0.093902 0.056068,-0.103107 C 5.2820888,4.6376825 5.3632024,4.5821766 5.4706533,4.5499844 Z M 6.8118195,4.4420047 C 6.7284607,4.0532803 6.6382764,3.7796811 6.6332613,3.9002969 c -0.00361,0.08694 -0.017089,0.093288 -0.1541988,0.072657 -0.5073885,-0.076351 -0.5308043,-0.077324 -0.5350856,-0.02223 -0.010877,0.1399748 0.015748,0.2844242 0.085192,0.4621755 0.059674,0.1527443 0.076618,0.1723472 0.080596,0.093245 0.00277,-0.055086 0.01413,-0.077623 0.025245,-0.050079 0.013451,0.033335 0.1134876,0.050079 0.2991763,0.050079 0.2665639,0 0.2819697,0.00523 0.346464,0.117604 0.037122,0.064682 0.072659,0.1124405 0.078969,0.1061309 0.00631,-0.00631 -0.0152,-0.1358533 -0.0478,-0.2878746 z m 2.3063029,-0.163221 c -0.047228,-0.081216 -0.058633,-0.055222 -0.019972,0.045526 0.013734,0.035805 0.03342,0.05666 0.043736,0.046345 0.010312,-0.010312 -3.027e-4,-0.051657 -0.023764,-0.091871 z M 8.7256957,4.1306352 c -0.021945,-0.1352355 0.062144,-0.2601304 0.099562,-0.147876 0.013976,0.041939 0.023213,0.042011 0.048945,3.028e-4 C 8.8967717,3.946543 8.9299907,3.971235 8.989393,4.068672 9.088649,4.2314842 9.0936888,4.2137363 9.013074,3.985249 8.932622,3.7572225 8.938327,3.7437489 9.05549,3.8850912 L 9.15512,4.0052814 9.072046,3.802906 C 9.0030246,3.6347548 8.996677,3.5805461 9.0345217,3.4823937 l 0.045549,-0.1181325 0.1168346,0.1388241 c 0.06426,0.076353 0.1750077,0.2510209 0.2461073,0.3881505 0.075257,0.145152 0.1409757,0.2303853 0.1572869,0.2039927 0.02067,-0.033445 0.056398,-0.032404 0.1362242,0.00397 0.059514,0.027116 0.1135373,0.04397 0.1200557,0.037451 0.00651,-0.00654 -0.02587,-0.098986 -0.071967,-0.2054856 C 9.7095748,3.7578175 9.6898248,3.7397196 9.5961443,3.758455 9.5023663,3.7772114 9.4791521,3.7558051 9.3726639,3.5524182 9.3073046,3.4275853 9.1472981,3.2169969 9.0170901,3.0844432 8.8868834,2.9518894 8.8191664,2.8896433 8.8666081,2.9461172 l 0.08626,0.1026815 -0.1185125,0.08762 c -0.065182,0.048191 -0.1308536,0.087621 -0.1459367,0.087621 -0.015083,0 -0.087601,-0.067607 -0.1611508,-0.1502382 L 8.3935412,2.923563 l 0.05749,0.1699791 c 0.05686,0.1681149 0.056395,0.1702514 -0.042403,0.1950496 -0.067819,0.017021 -0.1278126,0.00106 -0.186849,-0.049789 l -0.086956,-0.07486 0.068538,0.1087655 c 0.090019,0.1428535 0.08684,0.1801848 -0.028194,0.3310014 l -0.096732,0.126824 0.080635,0.1273539 c 0.065136,0.1028753 0.1071832,0.1273555 0.2187441,0.1273555 0.1359747,0 0.3347837,0.1416663 0.3347837,0.2385589 0,0.023037 0.00789,0.041884 0.017513,0.041884 0.00963,0 0.00764,-0.060807 -0.00441,-0.1351279 z M 12.518623,2.9686078 c 0,-0.00831 -0.03155,-0.039869 -0.07011,-0.07011 -0.06354,-0.049835 -0.06496,-0.048417 -0.01513,0.015127 0.05234,0.066736 0.08523,0.087958 0.08523,0.054986 z m 4.466681,5.6240059 c 0,-4.4179938 0.0047,-6.2253555 0.0104,-4.0163593 0.0057,2.2089977 0.0057,5.8237196 0,8.0327176 -0.0057,2.208995 -0.0104,0.401636 -0.0104,-4.0163583 z"
       id="path1" /></g></svg>
