<svg width="28" height="28" viewBox="0 0 28 28" fill="none" xmlns="http://www.w3.org/2000/svg">
<path d="M23.02 27.02H4C1.79 27.02 0 25.23 0 23.02V4C0 1.79 1.79 0 4 0H23.03C25.24 0 27.03 1.79 27.03 4V23.03C27.02 25.23 25.23 27.02 23.02 27.02Z" fill="#2D2D2D"/>
<path d="M13.9802 5.6101L12.6802 7.4601C12.4802 7.7501 12.1402 7.9301 11.7802 7.9301H4.68018V5.6001C4.67018 5.6101 13.9802 5.6101 13.9802 5.6101Z" fill="white"/>
<path d="M22.81 5.60986L11.65 21.4199H4.20996L15.37 5.60986H22.81Z" fill="white"/>
<path d="M13.04 21.4203L14.35 19.5603C14.55 19.2703 14.89 19.0903 15.25 19.0903H22.34V21.4203H13.04Z" fill="white"/>
</svg>
